<svg xmlns="http://www.w3.org/2000/svg" width="64" height="64" viewBox="0 0 64 64">
  <defs>
    <linearGradient id="g" x1="0" y1="0" x2="1" y2="1">
      <stop offset="0" stop-color="#20bcff"/>
      <stop offset="1" stop-color="#04c8af"/>
    </linearGradient>
  </defs>
  <rect width="64" height="64" rx="16" fill="url(#g)"/>
  <path d="M6 40c5 0 5 4 10 4s5-4 10-4 5 4 10 4 5-4 10-4 5 4 10 4v10H6z" fill="#fff" opacity="0.9"/>
  <path d="M6 30c5 0 5 4 10 4s5-4 10-4 5 4 10 4 5-4 10-4 5 4 10 4" fill="none" stroke="#fff" stroke-width="3" stroke-linecap="round" opacity="0.85"/>
  <circle cx="42" cy="20" r="6" fill="#fff"/>
</svg>
